<svg xmlns="http://www.w3.org/2000/svg" viewBox="0 0 385.9 310.83"><defs><style>.cls-1{fill:#4c6ba7;}</style></defs><g id="Layer_2" data-name="Layer 2"><path class="cls-1" d="M587.26,553.25l3.35-4C607.17,575.05,607.57,583.33,587.26,553.25Z" transform="translate(-476.48 -326.79)"/><path class="cls-1" d="M601.61,570.82l-.4.85-1.8,3.82c-4.51-4.12-9.61-8.86-15.3-14.28l-2-1.87L585,556q5.81,5.6,12.1,10.93l.42.36Q599.62,569.09,601.61,570.82Z" transform="translate(-476.48 -326.79)"/><path class="cls-1" d="M745.55,446.5l-1.65,2q-2.05-2.06-4.21-4.26c-.65-.65-.29-2.92.43-2.34C741.57,443,743.41,444.6,745.55,446.5Z" transform="translate(-476.48 -326.79)"/><path class="cls-1" d="M855.66,627.4c-7.77,11.66-35.14,14.52-68.24,2.35-36.68-13.48-63.51-33.73-94.66-57.42q-7.71-5.87-15.53-12c-2.58-2-5.18-4.11-7.77-6.19l-1.28-1q-3.57-2.88-7.12-5.81-3.79-3.12-7.56-6.3-9.15-7.68-18.07-15.61c-2-1.81-4.06-3.62-6.06-5.45-.9-.8-1.8-1.62-2.69-2.44q-2.67-2.43-5.3-4.89-3.63-3.36-7.17-6.77t-7.14-6.94c-26-25.7-51.9-51.19-78-80.43-22.85-25.64-27.19-32.05-33.4-41.45.69,9.54,1.46,10.78,2.77,17.35,4.16,21.05,23,95.85,79.49,154.68l-.52.62-2.39,2.85c-40.14-39.18-50.87-57.07-65.09-85.91-19.78-40.15-30.72-93.58-33.49-137.94a1.78,1.78,0,0,1,3.25-1.07c2.47,3.69,4.92,7.37,7.41,11,19.76,29,38.64,55.48,62,82.83,23.7,27.72,46.59,53.12,71.11,77.14l2.13,2.09c1.65,1.6,3.3,3.2,5,4.78l3.43,3.28q2.21,2.1,4.44,4.19l4.2,3.92q9.65,8.94,19.52,17.62,3.7,3.25,7.43,6.46c1.77,1.54,3.56,3.07,5.35,4.59l2.89,2.44c2,1.69,4,3.38,6,5,7.06,5.85,41,35.22,68.14,49.55,35.17,18.58,66.76,25.32,85.82,13.61,22.13-13.61,9.23-47.1-25.49-93.36-25.28-33.69-36.78-45.58-57.58-66.58l2-2.38c20.73,19.44,54.77,54.09,70.48,73.82C855.92,567.73,872.57,602,855.66,627.4Z" transform="translate(-476.48 -326.79)"/><polygon points="338.77 36.6 334.44 41.76 269.07 119.71 267.42 121.68 189.9 214.12 188.61 215.66 184.58 220.47 183.43 221.84 110.46 308.85 41.69 308.85 44.73 305.23 105.67 232.55 108.47 229.21 110.78 226.46 114.13 222.47 144.9 185.78 150.88 178.65 151.95 177.37 158 170.16 270 36.6 338.77 36.6"/><polygon points="223.65 202.95 250.32 202.95 165.81 308.85 135.58 308.85 223.65 202.95"/></g></svg>