<svg id="Aeon_negative" data-name="Aeon negative" xmlns="http://www.w3.org/2000/svg" viewBox="0 0 991.73 325.09"><defs><style>.cls-1{fill:#4c6ca8;}.cls-2{fill:#ededed;}.cls-3{fill:#191919;}</style></defs><path class="cls-1" d="M1156,816.54c-3.41-14.77-13.39-27.25-24.18-37.45a210,210,0,0,0-17.93-14.67c-1.39-1-3.14,1.25-1.86,2.42,11.57,10.57,24.31,21.11,31.73,35.18,6.64,12.6,9.36,30.24,1.08,42.75-7.53,11.4-21.65,15.39-34.45,17.14-16.49,2.24-33.54,2.06-50.15,2-71.7-.24-142.89-11.17-213.06-25.19a1870.53,1870.53,0,0,1-193.87-49.68c-63.78-20-125.71-44-191.21-71.42-62.8-26.27-117.2-54.84-175.34-87.09-7.33-4.06-14.62-8.19-21.91-12.32a3.37,3.37,0,0,0-4.58,4.58c42.46,72.55,95.2,135.23,165.39,182.59A416.9,416.9,0,0,0,491,841.81c1.75.76,3.19-1.68,1.5-2.56C419.3,801,373.94,748.16,346.29,712.73c-7.8-10-10.25-13.21-19.54-28.73,18.49,10.58,38.49,21.8,98.91,45.64,68.94,27.19,134.44,48.17,200.23,69.43s139.23,38.53,207.33,51.12c72.8,13.47,152.18,24.56,226.11,24.16,17.17-.09,34.62-.37,51.65-2.78,12.9-1.83,26.78-6,35.85-15.88C1156.46,845.15,1159.16,830.23,1156,816.54Z" transform="translate(-241.89 -549.27)"/><path class="cls-2" d="M444.59,726.27V660.4h66V636.64h-66V573.13h84.68v-20.6H420.57a3.24,3.24,0,0,1-.75.16C338,569.88,257.16,675.81,241.89,787.13l23.93-.07c7.34-36.93,18-65.53,30.05-83.56l123.32-1,.22,44.39h114.7v-20.6Zm-25.4-50H308.84c20.85-39.58,64.77-81.6,110.35-99.75Z" transform="translate(-241.89 -549.27)"/><path class="cls-3" d="M569.26,588.6v.26l.61-.26Z" transform="translate(-241.89 -549.27)"/><path class="cls-2" d="M627.52,750.13q-40.83,0-65.4-27.25T537.56,652q0-46.89,25-74.81t68.14-27.92q39.76,0,64.07,27.11t24.29,70.88q0,47.57-24.9,75.22T627.52,750.13Zm1.61-180.25q-30.25,0-49.14,22.09t-18.87,58q0,35.92,18.41,57.8t48,21.89q31.59,0,49.8-20.87t18.21-58.41q0-38.49-17.67-59.5T629.13,569.88Z" transform="translate(-241.89 -549.27)"/><path class="cls-2" d="M893,625.2l-.76-73.48H867.06V692.19c-5.17-9.83-8.35-16.39-11.4-22.26-6.11-11.79-11.69-20.82-31.59-48-26.58-35.84-72.32-70.25-72.32-70.25H719.09V746.07h25.17V605.67q0-20.46-1.2-26.7H744c13.26,7.68,52.11,45,62.72,58.37a394.37,394.37,0,0,1,34,50.53,384.64,384.64,0,0,1,18.37,36.72l34.53-41.39Z" transform="translate(-241.89 -549.27)"/><polygon class="cls-2" points="801.94 10.86 633.91 211.22 583.3 211.22 751.32 10.86 801.94 10.86"/><polygon class="cls-2" points="717.21 133.29 717.21 160.04 674.64 211.22 652.39 211.22 717.21 133.29"/><path class="cls-2" d="M970.37,587.55c19.46-.46,27.71-.46,43.72-.46,69,0,88.45,39.4,88.44,83.51,0,28.54-7.23,52.83-23.48,70.52-15.11,16.27-34.52,24-69.64,23.83-17.24-.1-22.45.25-39.08-.51Zm10.2,169.37c9.47.21,27,.27,35.12,0,54.59-1.91,77.89-34.79,77.9-86.2,0-46.7-23.63-74.46-78.22-76.1-10.82-.32-25.12.43-34.8.63Z" transform="translate(-241.89 -549.27)"/><path class="cls-2" d="M1224.77,631c-3.06-17.29-19.78-34.36-47.7-35-30.37-.72-58.08,14.58-58.08,35.65,0,23.42,18.4,28.79,52.72,36,31.42,6.59,63.34,18.32,61.86,52.44-1.59,36.59-30.22,46.06-63.24,46-40.88-.06-59-29.59-60.55-48.2l8.31-.87c1.75,12.53,11.52,39.43,52.25,41,33.66.83,54.41-9.76,55-40.47.5-25.37-21.57-33.77-59.6-41.65-37.38-7.74-54.62-18.83-55.73-42.6-1.55-33.34,38.39-47.41,69.72-46.07,41.75,1.79,52,31.47,53.49,42.52Z" transform="translate(-241.89 -549.27)"/></svg>