<svg id="Icon_negative" data-name="Icon negative" xmlns="http://www.w3.org/2000/svg" viewBox="0 0 611.09 492.21"><defs><style>.cls-1{fill:#4c6ca8;}.cls-2{fill:#ededed;}</style></defs><path class="cls-1" d="M1044.74,979.82c-12.3,18.47-55.64,23-108.06,3.72-58.08-21.34-100.57-53.41-149.9-90.92q-12.21-9.3-24.59-19.07c-4.09-3.23-8.2-6.51-12.3-9.8-.68-.54-1.35-1.1-2-1.63-3.77-3-7.52-6.12-11.28-9.2q-6-4.95-12-10Q710.12,830.78,696,818.22c-3.23-2.87-6.43-5.73-9.6-8.63-1.42-1.27-2.85-2.57-4.26-3.86q-4.23-3.86-8.39-7.75-5.75-5.31-11.35-10.72c-3.82-3.66-7.59-7.31-11.31-11C610,735.58,568.9,695.21,527.64,648.91c-36.19-40.6-43.06-50.75-52.89-65.64,1.09,15.11,2.31,17.07,4.38,27.48,6.59,33.33,31.64,147,121.13,240.19l-.83,1-3.78,4.51c-63.56-62-75.8-85.62-98.32-131.29C466,661.56,448.68,577,444.29,506.71a2.83,2.83,0,0,1,5.15-1.7c3.91,5.85,7.79,11.67,11.74,17.48,31.29,46,61.18,87.86,98.21,131.17,37.53,43.89,73.77,84.12,112.6,122.15,1.13,1.11,2.25,2.22,3.37,3.31,2.62,2.54,5.23,5.07,7.86,7.57q2.7,2.61,5.43,5.2c2.33,2.21,4.67,4.43,7,6.63l6.65,6.21q15.27,14.16,30.91,27.9,5.87,5.16,11.77,10.23c2.8,2.44,5.64,4.86,8.47,7.27,1.52,1.3,3,2.58,4.58,3.86,3.18,2.68,6.36,5.36,9.56,8,11.18,9.26,65,55.77,107.9,78.46,55.7,29.43,105.72,40.1,135.9,21.56,35.05-21.56,14.62-74.59-40.36-147.84-40-53.35-73.37-88.35-106.31-121.61l3.17-3.16c32.83,30.78,101.86,101.22,126.73,132.46C1045.15,885.33,1071.52,939.63,1044.74,979.82Z" transform="translate(-444.29 -503.79)"/><polygon class="cls-2" points="541.21 31.04 534.36 39.21 430.84 162.65 428.23 165.77 305.47 312.15 303.43 314.59 297.05 322.21 295.23 324.38 179.67 462.16 70.77 462.16 75.59 456.43 172.09 341.34 176.52 336.05 180.18 331.69 185.49 325.37 234.21 267.27 243.68 255.98 245.38 253.96 254.96 242.54 432.31 31.04 541.21 31.04"/><polygon class="cls-2" points="358.9 294.46 401.15 294.46 267.32 462.16 219.44 462.16 358.9 294.46"/></svg>